<?xml version="1.0" encoding="UTF-8" standalone="no"?>
<!DOCTYPE svg PUBLIC "-//W3C//DTD SVG 1.1//EN" "http://www.w3.org/Graphics/SVG/1.1/DTD/svg11.dtd">
<!-- Created with Vectornator (http://vectornator.io/) -->
<svg height="100%" stroke-miterlimit="10" style="fill-rule:nonzero;clip-rule:evenodd;stroke-linecap:round;stroke-linejoin:round;" version="1.1" viewBox="0 0 100 100" width="100%" xml:space="preserve" xmlns="http://www.w3.org/2000/svg" xmlns:vectornator="http://vectornator.io" xmlns:xlink="http://www.w3.org/1999/xlink">
<defs>
<clipPath id="TextBounds">
<rect height="25" width="11.0156" x="9.02814" y="7.91056"/>
</clipPath>
<clipPath id="TextBounds_2">
<rect height="37" width="46.224" x="21.6578" y="8.84904"/>
</clipPath>
<clipPath id="TextBounds_3">
<rect height="37" width="11.328" x="68.1827" y="6.47287"/>
</clipPath>
<clipPath id="TextBounds_4">
<rect height="37" width="38.408" x="8.16747" y="39.8762"/>
</clipPath>
<clipPath id="TextBounds_5">
<rect height="37" width="84.224" x="6.99754" y="69.3792"/>
</clipPath>
</defs>
<g id="レイヤー-1" vectornator:layerName="レイヤー 1">
<path clip-path="url(#TextBounds)" d="M14.2313 29.7309C13.3875 29.0903 12.9656 28.1606 12.9656 26.9418L12.9656 23.2738C12.9656 22.2895 12.6688 21.5356 12.075 21.0121C11.7156 20.6918 11.2 20.4379 10.5281 20.2504L10.5281 18.8324C11.286 18.5746 11.8211 18.2895 12.1336 17.977C12.6883 17.4379 12.9656 16.6137 12.9656 15.5043L12.9656 12.3637C12.9656 11.9653 13.032 11.5473 13.1649 11.1098C13.3992 10.352 13.7977 9.75041 14.3602 9.30509C14.8758 8.89884 15.4813 8.62931 16.1766 8.4965C16.5985 8.41056 17.2039 8.36369 17.993 8.35588L17.993 10.2192C17.3445 10.3598 16.9031 10.5473 16.6688 10.7817C16.3094 11.141 16.1297 11.7699 16.1297 12.6684L16.1297 15.3871C16.1297 16.2621 16.0125 16.9574 15.7781 17.4731C15.3797 18.3403 14.5985 19.0434 13.4344 19.5824C14.4891 20.0121 15.1981 20.5121 15.5613 21.0824C15.9246 21.6528 16.1141 22.4418 16.1297 23.4496L16.1297 26.4145C16.1297 27.2817 16.3406 27.9067 16.7625 28.2895C16.9969 28.516 17.407 28.7153 17.993 28.8871L17.993 30.7504L17.161 30.727C16.0438 30.6957 15.0672 30.3637 14.2313 29.7309Z" fill="#595959" fill-rule="evenodd" opacity="1" stroke="none"/>
<g fill="#595959" opacity="1" stroke="none">
<path clip-path="url(#TextBounds_2)" d="M32.7338 27.185C33.2138 28.265 33.5018 29.081 33.6218 29.705L35.3258 29.705C35.5178 28.913 35.7578 28.289 36.2378 27.209L41.1338 16.433C41.5898 15.449 41.9258 14.489 42.1658 13.505C42.0698 14.489 41.9978 15.785 41.9978 16.457L41.9978 26.873C41.9978 28.025 41.9498 28.889 41.8058 29.705L43.9898 29.705C43.8458 28.841 43.7978 28.193 43.7978 26.873L43.7978 14.321C43.7978 13.073 43.8458 12.377 43.9898 11.465L41.2298 11.465C41.0858 12.161 40.8218 12.905 40.4138 13.841L34.5098 27.065L28.5818 13.841C28.2218 13.049 27.9338 12.185 27.7898 11.465L25.0058 11.465C25.1498 12.353 25.1978 13.121 25.1978 14.321L25.1978 26.873C25.1978 28.121 25.1498 28.817 25.0058 29.705L27.1898 29.705C27.0458 28.889 26.9978 28.145 26.9978 26.873L26.9978 16.601C26.9978 16.025 26.9018 14.537 26.8298 13.505C27.2858 14.969 27.5498 15.713 27.9098 16.481L32.7338 27.185Z" fill-rule="evenodd"/>
<path clip-path="url(#TextBounds_2)" d="M56.9738 29.705L58.9658 29.705C58.8218 28.745 58.7738 28.073 58.7738 26.993L58.7738 19.481C58.7738 18.377 58.8218 17.609 58.9418 16.769L56.8058 16.769C56.9258 17.609 56.9738 18.449 56.9738 19.481L56.9738 24.113C56.7578 25.073 56.4938 25.673 55.8698 26.513C54.9098 27.809 53.7818 28.409 52.4138 28.409C50.5418 28.409 49.5098 27.209 49.5098 25.073L49.5098 19.481C49.5098 18.425 49.5578 17.609 49.6778 16.769L47.5178 16.769C47.6378 17.537 47.6858 18.377 47.6858 19.457L47.6858 25.385C47.6858 26.537 47.9258 27.473 48.3578 28.169C49.1258 29.321 50.4698 29.945 52.1978 29.945C54.3578 29.945 55.8458 29.057 57.0458 27.089C56.9738 27.713 56.9738 27.881 56.9738 28.145L56.9738 29.705Z" fill-rule="evenodd"/>
<path clip-path="url(#TextBounds_2)" d="M62.3498 11.465L62.3498 13.601L64.6778 13.601L64.6778 11.465L62.3498 11.465ZM62.4218 16.769C62.5418 17.609 62.5898 18.329 62.5898 19.481L62.5898 26.993C62.5898 28.001 62.5418 28.673 62.4218 29.705L64.5818 29.705C64.4618 28.769 64.4138 28.097 64.4138 26.993L64.4138 19.481C64.4138 18.281 64.4618 17.609 64.5818 16.769L62.4218 16.769Z" fill-rule="evenodd"/>
</g>
<path clip-path="url(#TextBounds_3)" d="M70.2827 31.3849L72.7787 31.3849C74.8667 31.3849 76.1387 30.1609 76.1387 28.1689L76.1387 24.1129C76.1387 21.9289 76.3547 21.4489 77.4347 21.2329L77.4347 18.8089C76.3547 18.6169 76.1387 18.1609 76.1387 15.9289L76.1387 11.8729C76.1387 9.85687 74.8667 8.65687 72.7787 8.65687L70.2827 8.65687L70.2827 11.2489L71.2427 11.2489C72.1787 11.2489 72.4427 11.3209 72.7547 11.5849C73.0427 11.8489 73.1147 12.1609 73.1147 13.0009L73.1147 15.9769C73.1147 19.0009 73.2347 19.4089 74.3867 20.0329C73.2587 20.5129 73.1147 20.9929 73.1147 24.0409L73.1147 27.0409C73.1147 27.8809 73.0427 28.1929 72.7547 28.4569C72.4427 28.7209 72.1787 28.7929 71.2427 28.7929L70.2827 28.7929L70.2827 31.3849Z" fill="#595959" fill-rule="evenodd" opacity="1" stroke="none"/>
<g fill="#595959" opacity="1" stroke="none">
<path clip-path="url(#TextBounds_4)" d="M12.8835 44.2202C13.0035 45.0122 13.0515 45.9242 13.0515 46.8842L13.0515 47.7962L12.0915 47.7962C11.0835 47.7962 10.6035 47.7722 9.93147 47.6522L9.93147 49.4762C10.7235 49.3802 11.2755 49.3322 12.0915 49.3322L13.0515 49.3322L13.0515 57.9242C13.0515 59.0522 13.2435 59.7482 13.7235 60.2282C14.2035 60.7082 15.0195 60.9722 16.0755 60.9722C17.0595 60.9722 17.8035 60.8282 18.7875 60.4202L18.2595 58.7402C17.4675 59.2202 16.9875 59.3642 16.3635 59.3642C15.8595 59.3642 15.4515 59.2202 15.1875 58.9562C14.9715 58.7402 14.8755 58.3802 14.8755 57.6842L14.8755 49.3322L16.0275 49.3322C17.1075 49.3322 17.7075 49.3562 18.4755 49.4762L18.4755 47.6522C17.6355 47.7722 17.1315 47.7962 16.0275 47.7962L14.8755 47.7962L14.8755 46.8842C14.8755 45.8522 14.9235 44.9882 15.0435 44.2202L12.8835 44.2202Z" fill-rule="evenodd"/>
<path clip-path="url(#TextBounds_4)" d="M26.6115 61.0442C30.4755 61.0442 32.9715 58.3562 32.9715 54.2522C32.9715 50.1242 30.4995 47.4842 26.5875 47.4842C22.6755 47.4842 20.1795 50.1242 20.1795 54.2762C20.1795 58.4282 22.6755 61.0442 26.6115 61.0442ZM26.6355 48.9962C29.3955 48.9962 31.1235 51.0122 31.1235 54.2522C31.1235 57.4922 29.3955 59.4842 26.5875 59.4842C23.7795 59.4842 22.0275 57.4922 22.0275 54.2282C22.0275 50.9882 23.7795 48.9962 26.6355 48.9962Z" fill-rule="evenodd"/>
</g>
<g fill="#595959" opacity="1" stroke="none">
<path clip-path="url(#TextBounds_5)" d="M18.0735 87.7152C18.5535 88.7952 18.8415 89.6112 18.9615 90.2352L20.6655 90.2352C20.8575 89.4432 21.0975 88.8192 21.5775 87.7392L26.4735 76.9632C26.9295 75.9792 27.2655 75.0192 27.5055 74.0352C27.4095 75.0192 27.3375 76.3152 27.3375 76.9872L27.3375 87.4032C27.3375 88.5552 27.2895 89.4192 27.1455 90.2352L29.3295 90.2352C29.1855 89.3712 29.1375 88.7232 29.1375 87.4032L29.1375 74.8512C29.1375 73.6032 29.1855 72.9072 29.3295 71.9952L26.5695 71.9952C26.4255 72.6912 26.1615 73.4352 25.7535 74.3712L19.8495 87.5952L13.9215 74.3712C13.5615 73.5792 13.2735 72.7152 13.1295 71.9952L10.3455 71.9952C10.4895 72.8832 10.5375 73.6512 10.5375 74.8512L10.5375 87.4032C10.5375 88.6512 10.4895 89.3472 10.3455 90.2352L12.5295 90.2352C12.3855 89.4192 12.3375 88.6752 12.3375 87.4032L12.3375 77.1312C12.3375 76.5552 12.2415 75.0672 12.1695 74.0352C12.6255 75.4992 12.8895 76.2432 13.2495 77.0112L18.0735 87.7152Z" fill-rule="evenodd"/>
<path clip-path="url(#TextBounds_5)" d="M42.3135 90.2352L44.3055 90.2352C44.1615 89.2752 44.1135 88.6032 44.1135 87.5232L44.1135 80.0112C44.1135 78.9072 44.1615 78.1392 44.2815 77.2992L42.1455 77.2992C42.2655 78.1392 42.3135 78.9792 42.3135 80.0112L42.3135 84.6432C42.0975 85.6032 41.8335 86.2032 41.2095 87.0432C40.2495 88.3392 39.1215 88.9392 37.7535 88.9392C35.8815 88.9392 34.8495 87.7392 34.8495 85.6032L34.8495 80.0112C34.8495 78.9552 34.8975 78.1392 35.0175 77.2992L32.8575 77.2992C32.9775 78.0672 33.0255 78.9072 33.0255 79.9872L33.0255 85.9152C33.0255 87.0672 33.2655 88.0032 33.6975 88.6992C34.4655 89.8512 35.8095 90.4752 37.5375 90.4752C39.6975 90.4752 41.1855 89.5872 42.3855 87.6192C42.3135 88.2432 42.3135 88.4112 42.3135 88.6752L42.3135 90.2352Z" fill-rule="evenodd"/>
<path clip-path="url(#TextBounds_5)" d="M47.6895 71.9952L47.6895 74.1312L50.0175 74.1312L50.0175 71.9952L47.6895 71.9952ZM47.7615 77.2992C47.8815 78.1392 47.9295 78.8592 47.9295 80.0112L47.9295 87.5232C47.9295 88.5312 47.8815 89.2032 47.7615 90.2352L49.9215 90.2352C49.8015 89.2992 49.7535 88.6272 49.7535 87.5232L49.7535 80.0112C49.7535 78.8112 49.8015 78.1392 49.9215 77.2992L47.7615 77.2992Z" fill-rule="evenodd"/>
</g>
</g>
</svg>
